<svg align="center" width="418.47998046875px" height="131.0099609375px" xmlns="http://www.w3.org/2000/svg" viewBox="40.760009765625 9.495019531249994 418.47998046875 131.0099609375" style="background: transparent;" preserveAspectRatio="xMidYMid"><defs><linearGradient id="editing-sticker-gradient" x1="0.5" y1="0.2" x2="0.5" y2="0.8"><stop offset="0" stop-color="#007aff"></stop><stop offset="1" stop-color="#ff5300"></stop></linearGradient><filter id="editing-sticker" x="-100%" y="-100%" width="300%" height="300%"><feMorphology operator="erode" radius="1" in="SourceAlpha" result="alpha-erode"></feMorphology><feConvolveMatrix order="3,3" divisor="1" kernelMatrix="0 1 0 1 1 1 0 1 0" in="alpha-erode" result="alpha-round"></feConvolveMatrix><feMorphology operator="dilate" radius="3.5" in="alpha-round" result="dilate-shadow"></feMorphology><feGaussianBlur in="dilate-shadow" stdDeviation="1.5" result="shadow"></feGaussianBlur><feFlood flood-color="#fff" result="flood-sticker"></feFlood><feComposite operator="in" in="flood-sticker" in2="alpha-round" result="comp-sticker"></feComposite><feMorphology operator="dilate" radius="3" in="comp-sticker" result="morph-sticker"></feMorphology><feConvolveMatrix order="3,3" divisor="1" kernelMatrix="0 1 0 1 1 1 0 1 0" in="morph-sticker" result="sticker"></feConvolveMatrix><feMerge><feMergeNode in="shadow"></feMergeNode><feMergeNode in="sticker"></feMergeNode><feMergeNode in="SourceGraphic"></feMergeNode></feMerge></filter></defs><g filter="url(#editing-sticker)"><g transform="translate(102.70499086380005, 99.25500106811523)"><path d="M18.11-44.54L18.11-44.54L18.11-44.54Q22.85-44.54 27.58-43.14L27.58-43.14L27.58-43.14Q28.48-42.88 28.48-41.98L28.48-41.98L28.48-33.15L28.48-33.15Q28.48-32.19 27.52-32.19L27.52-32.19L23.94-32.19L23.94-32.19Q22.98-32.19 23.04-33.15L23.04-33.15L23.23-37.44L23.23-37.44Q20.67-38.98 17.54-38.98L17.54-38.98L17.54-38.98Q14.40-38.98 12.51-37.47L12.51-37.47L12.51-37.47Q10.62-35.97 10.62-33.28L10.62-33.28L10.62-33.28Q10.62-30.59 12.35-28.90L12.35-28.90L12.35-28.90Q14.08-27.20 17.28-25.98L17.28-25.98L17.28-25.98Q20.48-24.77 21.57-24.32L21.57-24.32L21.57-24.32Q22.66-23.87 24.74-22.66L24.74-22.66L24.74-22.66Q26.82-21.44 27.81-20.26L27.81-20.26L27.81-20.26Q28.80-19.07 29.66-17.09L29.66-17.09L29.66-17.09Q30.53-15.10 30.53-12.67L30.53-12.67L30.53-12.67Q30.53-6.34 26.53-2.78L26.53-2.78L26.53-2.78Q22.53 0.77 15.17 0.77L15.17 0.77L15.17 0.77Q9.73 0.77 4.42-0.90L4.42-0.90L4.42-0.90Q3.52-1.15 3.52-2.05L3.52-2.05L3.52-12.22L3.52-12.22Q3.52-13.18 4.48-13.18L4.48-13.18L8.06-13.18L8.06-13.18Q9.02-13.18 8.96-12.22L8.96-12.22L8.70-6.91L8.70-6.91Q9.54-6.14 11.49-5.47L11.49-5.47L11.49-5.47Q13.44-4.80 15.49-4.80L15.49-4.80L15.49-4.80Q23.42-4.80 23.42-11.26L23.42-11.26L23.42-11.26Q23.42-14.40 21.31-16.22L21.31-16.22L21.31-16.22Q19.20-18.05 15.84-19.17L15.84-19.17L15.84-19.17Q12.48-20.29 10.75-21.15L10.75-21.15L10.75-21.15Q9.02-22.02 7.23-23.42L7.23-23.42L7.23-23.42Q3.65-26.11 3.65-31.68L3.65-31.68L3.65-31.68Q3.65-37.25 7.49-40.90L7.49-40.90L7.49-40.90Q11.33-44.54 18.11-44.54ZM46.27-46.78L46.27-46.78L46.27-5.06L50.30-5.06L50.30-5.06Q51.26-5.06 51.26-4.10L51.26-4.10L51.26-0.96L51.26-0.96Q51.26 0 50.30 0L50.30 0L35.07 0L35.07 0Q34.11 0 34.11-0.96L34.11-0.96L34.11-4.10L34.11-4.10Q34.11-5.06 35.07-5.06L35.07-5.06L39.10-5.06L39.10-42.50L35.65-42.50L35.65-42.50Q34.69-42.50 34.69-43.46L34.69-43.46L34.69-46.78L34.69-46.78Q34.69-47.74 35.65-47.74L35.65-47.74L45.31-47.74L45.31-47.74Q46.27-47.74 46.27-46.78ZM68.86 0.77L68.86 0.77L68.86 0.77Q61.25 0.77 57.70-3.68L57.70-3.68L57.70-3.68Q54.14-8.13 54.14-15.46L54.14-15.46L54.14-15.46Q54.14-22.78 57.92-27.58L57.92-27.58L57.92-27.58Q61.70-32.38 68.80-32.38L68.80-32.38L68.80-32.38Q72.32-32.38 74.85-31.07L74.85-31.07L74.85-31.07Q77.38-29.76 78.72-27.52L78.72-27.52L78.72-27.52Q81.28-23.17 81.28-17.47L81.28-17.47L81.28-17.47Q81.28-14.78 81.02-14.53L81.02-14.53L81.02-14.53Q80.77-14.27 80.06-14.27L80.06-14.27L61.25-14.27L61.25-14.27Q61.57-9.66 63.52-7.14L63.52-7.14L63.52-7.14Q65.47-4.61 70.27-4.61L70.27-4.61L70.27-4.61Q73.79-4.61 77.50-6.27L77.50-6.27L77.50-6.27Q78.40-6.72 78.78-5.76L78.78-5.76L80-2.82L80-2.82Q80.32-2.05 79.42-1.54L79.42-1.54L79.42-1.54Q75.20 0.77 68.86 0.77ZM61.25-19.01L61.25-19.01L74.56-19.01L74.56-19.01Q74.69-27.01 68.29-27.01L68.29-27.01L68.29-27.01Q64.51-27.01 62.94-24.61L62.94-24.61L62.94-24.61Q61.38-22.21 61.25-19.01ZM100.16 0.77L100.16 0.77L100.16 0.77Q92.54 0.77 88.99-3.68L88.99-3.68L88.99-3.68Q85.44-8.13 85.44-15.46L85.44-15.46L85.44-15.46Q85.44-22.78 89.22-27.58L89.22-27.58L89.22-27.58Q92.99-32.38 100.10-32.38L100.10-32.38L100.10-32.38Q103.62-32.38 106.14-31.07L106.14-31.07L106.14-31.07Q108.67-29.76 110.02-27.52L110.02-27.52L110.02-27.52Q112.58-23.17 112.58-17.47L112.58-17.47L112.58-17.47Q112.58-14.78 112.32-14.53L112.32-14.53L112.32-14.53Q112.06-14.27 111.36-14.27L111.36-14.27L92.54-14.27L92.54-14.27Q92.86-9.66 94.82-7.14L94.82-7.14L94.82-7.14Q96.77-4.61 101.57-4.61L101.57-4.61L101.57-4.61Q105.09-4.61 108.80-6.27L108.80-6.27L108.80-6.27Q109.70-6.72 110.08-5.76L110.08-5.76L111.30-2.82L111.30-2.82Q111.62-2.05 110.72-1.54L110.72-1.54L110.72-1.54Q106.50 0.77 100.16 0.77ZM92.54-19.01L92.54-19.01L105.86-19.01L105.86-19.01Q105.98-27.01 99.58-27.01L99.58-27.01L99.58-27.01Q95.81-27.01 94.24-24.61L94.24-24.61L94.24-24.61Q92.67-22.21 92.54-19.01ZM127.68-46.78L127.68-46.78L127.68-21.25L130.94-21.25L140.86-30.98L140.86-30.98Q141.57-31.68 142.53-31.68L142.53-31.68L147.52-31.68L147.52-31.68Q148.48-31.68 148.48-30.72L148.48-30.72L148.48-27.39L148.48-27.39Q148.48-26.43 147.52-26.43L147.52-26.43L143.62-26.43L136.58-19.58L145.34-5.06L149.12-5.06L149.12-5.06Q150.08-5.06 150.08-4.10L150.08-4.10L150.08-0.96L150.08-0.96Q150.08 0 149.12 0L149.12 0L140.86 0L140.86 0Q139.97 0 139.39-0.83L139.39-0.83L129.79-16.32L127.68-16.32L127.68-5.06L131.07-5.06L131.07-5.06Q132.03-5.06 132.03-4.10L132.03-4.10L132.03-0.96L132.03-0.96Q132.03 0 131.07 0L131.07 0L117.12 0L117.12 0Q116.16 0 116.16-0.96L116.16-0.96L116.16-4.10L116.16-4.10Q116.16-5.06 117.12-5.06L117.12-5.06L120.51-5.06L120.51-42.56L117.06-42.56L117.06-42.56Q116.10-42.56 116.10-43.52L116.10-43.52L116.10-46.78L116.10-46.78Q116.10-47.74 117.06-47.74L117.06-47.74L126.72-47.74L126.72-47.74Q127.68-47.74 127.68-46.78ZM205.76-14.98L202.37-14.98L202.37-4.10L202.37-4.10Q202.37-3.20 201.47-2.75L201.47-2.75L201.47-2.75Q198.72-1.28 194.66-0.26L194.66-0.26L194.66-0.26Q190.59 0.77 186.08 0.77L186.08 0.77L186.08 0.77Q181.57 0.77 177.47-0.96L177.47-0.96L177.47-0.96Q173.38-2.69 170.94-5.82L170.94-5.82L170.94-5.82Q166.27-11.97 166.27-21.82L166.27-21.82L166.27-21.82Q166.27-27.84 168.10-32.42L168.10-32.42L168.10-32.42Q169.92-36.99 172.93-39.55L172.93-39.55L172.93-39.55Q178.82-44.54 186.46-44.54L186.46-44.54L186.46-44.54Q194.11-44.54 199.62-41.15L199.62-41.15L199.62-41.15Q200.51-40.64 200.51-39.74L200.51-39.74L200.51-31.74L200.51-31.74Q200.51-30.78 199.55-30.78L199.55-30.78L195.90-30.78L195.90-30.78Q194.94-30.78 195.01-31.74L195.01-31.74L195.20-36.03L195.20-36.03Q191.17-38.91 186.46-38.91L186.46-38.91L186.46-38.91Q181.76-38.91 178.91-36.58L178.91-36.58L178.91-36.58Q176.06-34.24 175.01-30.82L175.01-30.82L175.01-30.82Q173.95-27.39 173.95-22.56L173.95-22.56L173.95-22.56Q173.95-17.73 175.14-13.89L175.14-13.89L175.14-13.89Q176.32-10.05 179.42-7.49L179.42-7.49L179.42-7.49Q182.53-4.93 187.49-4.93L187.49-4.93L187.49-4.93Q192.45-4.93 195.78-7.17L195.78-7.17L195.78-14.98L191.68-14.98L191.68-14.98Q190.72-14.98 190.72-15.94L190.72-15.94L190.72-19.14L190.72-19.14Q190.72-20.10 191.68-20.10L191.68-20.10L205.76-20.10L205.76-20.10Q206.72-20.10 206.72-19.14L206.72-19.14L206.72-15.94L206.72-15.94Q206.72-14.98 205.76-14.98L205.76-14.98ZM220.80-26.18L220.80-26.18Q221.89-28.74 224.32-30.56L224.32-30.56L224.32-30.56Q226.75-32.38 229.63-32.38L229.63-32.38L229.63-32.38Q232.51-32.38 234.05-31.87L234.05-31.87L234.05-31.87Q234.82-31.62 234.82-30.72L234.82-30.72L234.82-22.08L234.82-22.08Q234.82-21.12 233.86-21.12L233.86-21.12L229.70-21.12L229.70-21.12Q228.74-21.12 228.80-22.08L228.80-22.08L229.06-25.79L229.06-25.79Q228.74-25.86 227.97-25.86L227.97-25.86L227.97-25.86Q225.02-25.86 223.10-23.46L223.10-23.46L223.10-23.46Q221.18-21.06 221.18-17.02L221.18-17.02L221.18-5.06L228.22-5.06L228.22-5.06Q229.18-5.06 229.18-4.10L229.18-4.10L229.18-0.96L229.18-0.96Q229.18 0 228.22 0L228.22 0L210.62 0L210.62 0Q209.66 0 209.66-0.96L209.66-0.96L209.66-4.10L209.66-4.10Q209.66-5.06 210.62-5.06L210.62-5.06L214.02-5.06L214.02-26.43L210.56-26.43L210.56-26.43Q209.60-26.43 209.60-27.39L209.60-27.39L209.60-30.72L209.60-30.72Q209.60-31.68 210.56-31.68L210.56-31.68L219.01-31.68L219.01-31.68Q219.90-31.68 220.10-30.72L220.10-30.72L220.80-26.18ZM250.05-30.72L250.05-5.06L254.08-5.06L254.08-5.06Q255.04-5.06 255.04-4.10L255.04-4.10L255.04-0.96L255.04-0.96Q255.04 0 254.08 0L254.08 0L238.85 0L238.85 0Q237.89 0 237.89-0.96L237.89-0.96L237.89-4.10L237.89-4.10Q237.89-5.06 238.85-5.06L238.85-5.06L238.85-5.06Q238.85-5.06 242.88-5.06L242.88-5.06L242.88-26.43L239.42-26.43L239.42-26.43Q238.46-26.43 238.46-27.39L238.46-27.39L238.46-30.72L238.46-30.72Q238.46-31.68 239.42-31.68L239.42-31.68L249.09-31.68L249.09-31.68Q250.05-31.68 250.05-30.72L250.05-30.72ZM242.30-37.38L242.30-37.38L242.30-37.38Q241.09-38.66 241.09-40.64L241.09-40.64L241.09-40.64Q241.09-42.62 242.34-43.94L242.34-43.94L242.34-43.94Q243.58-45.25 245.66-45.25L245.66-45.25L245.66-45.25Q247.74-45.25 248.99-43.94L248.99-43.94L248.99-43.94Q250.24-42.62 250.24-40.64L250.24-40.64L250.24-40.64Q250.24-38.66 248.96-37.38L248.96-37.38L248.96-37.38Q247.68-36.10 245.60-36.10L245.60-36.10L245.60-36.10Q243.52-36.10 242.30-37.38ZM287.36-46.78L287.36-5.06L290.11-5.06L290.11-5.06Q291.07-5.06 291.07-4.10L291.07-4.10L291.07-0.96L291.07-0.96Q291.07 0 290.11 0L290.11 0L282.88 0L282.88 0Q282.05 0 281.92-0.96L281.92-0.96L281.41-4.74L281.41-4.74Q278.14 0.77 270.98 0.77L270.98 0.77L270.98 0.77Q264.70 0.77 261.31-3.17L261.31-3.17L261.31-3.17Q257.92-7.10 257.92-15.39L257.92-15.39L257.92-15.39Q257.92-23.68 261.86-28.03L261.86-28.03L261.86-28.03Q265.79-32.38 272-32.38L272-32.38L272-32.38Q274.82-32.38 276.99-31.33L276.99-31.33L276.99-31.33Q279.17-30.27 280.19-28.80L280.19-28.80L280.19-42.43L276.80-42.43L276.80-42.43Q275.84-42.43 275.84-43.39L275.84-43.39L275.84-46.78L275.84-46.78Q275.84-47.74 276.80-47.74L276.80-47.74L286.40-47.74L286.40-47.74Q287.36-47.74 287.36-46.78L287.36-46.78ZM280.19-12.03L280.19-12.03L280.19-23.30L280.19-23.30Q279.36-24.58 277.28-25.66L277.28-25.66L277.28-25.66Q275.20-26.75 273.09-26.75L273.09-26.75L273.09-26.75Q265.15-26.75 265.15-16L265.15-16L265.15-16Q265.15-7.74 268.74-5.70L268.74-5.70L268.74-5.70Q270.27-4.80 272.96-4.80L272.96-4.80L272.96-4.80Q275.65-4.80 277.92-6.78L277.92-6.78L277.92-6.78Q280.19-8.77 280.19-12.03Z" fill="url(#editing-sticker-gradient)" stroke="#001b69" stroke-width="2.5"></path></g></g><style>text {
  font-size: 64px;
  font-family: Arial Black;
  dominant-baseline: central;
  text-anchor: middle;
}</style></svg>
